<?xml version="1.0" encoding="utf-8"?>
<!-- Generator: Adobe Illustrator 16.0.0, SVG Export Plug-In . SVG Version: 6.00 Build 0)  -->
<!DOCTYPE svg PUBLIC "-//W3C//DTD SVG 1.1//EN" "http://www.w3.org/Graphics/SVG/1.1/DTD/svg11.dtd">
<svg version="1.1" id="Layer_1" xmlns="http://www.w3.org/2000/svg" xmlns:xlink="http://www.w3.org/1999/xlink" x="0px" y="0px"
	 width="173px" height="260px" viewBox="0 0 173 260" enable-background="new 0 0 173 260" xml:space="preserve">
<path fill="#90C73E" d="M89.207,253.365c-5.434-22.729-11.531-40.811-18.279-54.249c-6.747-13.44-16.975-27.961-30.675-43.558
	l-5.919-6.639C16.469,128.783,7.427,108.555,7.212,88.238c-0.237-22.447,7.436-41.79,23.02-58.032
	C45.816,13.957,64.602,5.723,86.581,5.49c21.867-0.233,40.763,7.603,56.688,23.517c15.926,15.909,24.006,35.084,24.244,57.531
	c0.215,20.318-8.394,40.734-25.828,61.245l-5.774,6.764c-13.363,15.881-23.277,30.617-29.739,44.196
	C99.707,212.32,94.053,230.527,89.207,253.365z"/>
<g>
	<path fill="#FFFFFF" d="M87.346,78.291l7.836,5.602c-2.938,1.154-6.096,1.565-8.815,1.565c-8.813,0-21.22-4.119-21.22-20.68
		s12.406-20.68,21.22-20.68c8.815,0,21.225,4.119,21.225,20.68c0,5.521-1.417,9.64-3.593,12.688l-8.271-5.848L87.346,78.291z
		 M124.238,91.967l-8.49-6.097c4.79-4.613,8.164-11.369,8.164-21.092c0-27.766-27.208-31.143-37.548-31.143
		c-10.339,0-37.546,3.377-37.546,31.143c0,27.766,27.207,31.143,37.546,31.143c4.572,0,12.625-0.658,20.027-3.954l9.25,6.673
		L124.238,91.967z"/>
	<path fill="#FFFFFF" d="M54.775,131.223l13.243-15.479h0.147c0,1.116-0.222,6.75-0.222,15.479H54.775z M84.237,131.223h-5.879
		v-22.534H66.531l-19.419,21.924v6.141h20.832v7.969h10.414v-7.969h5.879V131.223z"/>
	<path fill="#FFFFFF" d="M89.7,121.216c0-11.723,12.573-12.737,17.26-12.737c10.117,0,18.151,4.06,18.151,11.366
		c0,6.193-5.877,9.34-11.01,11.726c-6.994,3.35-10.642,4.976-11.828,6.646h22.914v6.295H89.105
		c0.369-4.214,0.815-8.63,12.273-14.312c9.521-4.719,13.316-6.547,13.316-10.605c0-2.386-2.231-5.126-7.293-5.126
		c-7.291,0-7.516,4.11-7.588,6.749L89.7,121.216L89.7,121.216z"/>
</g>
</svg>
